<svg width="18" height="19" viewBox="0 0 18 19" fill="none" xmlns="http://www.w3.org/2000/svg">
<path fill-rule="evenodd" clip-rule="evenodd" d="M17.34 18.47L17.5 18.5C17.78 18.5 18 18.28 18 18V2.88C18 2.65 17.85 2.47 17.64 2.4L12 0.5L6 2.6L0.66 0.530001L0.5 0.5C0.22 0.5 0 0.719999 0 1V16.12C0 16.35 0.15 16.53 0.36 16.6L6 18.5L12 16.4L17.34 18.47ZM11 14.63L7 16.03V4.37L11 2.97V14.63ZM2 15.04L5 16.05V4.35L2 3.19V15.04ZM13 2.95L16 3.96V15.8L13 14.64V2.95Z" fill="black" fill-opacity="0.54"/>
</svg>
